HIERARCHY
ROOT hip
{
	OFFSET 0.000000 103.560692 0.219151
	CHANNELS 6 Xposition Yposition Zposition Zrotation Xrotation Yrotation
	JOINT pelvis
	{
		OFFSET 0.000000 1.955040 1.591925
		CHANNELS 3 Zrotation Xrotation Yrotation
		JOINT lThigh
		{
			OFFSET 8.341582 -7.629402 -0.646910
			CHANNELS 3 Zrotation Xrotation Yrotation
			JOINT lShin
			{
				OFFSET 2.185763 -45.093132 -0.705710
				CHANNELS 3 Zrotation Xrotation Yrotation
				JOINT lFoot
				{
					OFFSET 0.730976 -46.379768 -2.264282
					CHANNELS 3 Zrotation Xrotation Yrotation
					JOINT lToe
					{
						OFFSET 2.797621 -4.200020 10.742415
						CHANNELS 3 Zrotation Xrotation Yrotation
						JOINT lBigToe
						{
							OFFSET -2.433708 -0.269072 1.841711
							CHANNELS 3 Zrotation Xrotation Yrotation
							End Site
							{
								OFFSET -10.527346 -33.657166 -1.340707
							}
						}
					}
				}
			}
		}
		JOINT rThigh
		{
			OFFSET -8.341582 -7.629402 -0.646910
			CHANNELS 3 Zrotation Xrotation Yrotation
			JOINT rShin
			{
				OFFSET -2.185763 -45.093132 -0.705710
				CHANNELS 3 Zrotation Xrotation Yrotation
				JOINT rFoot
				{
					OFFSET -0.730976 -46.379768 -2.264282
					CHANNELS 3 Zrotation Xrotation Yrotation
					JOINT rToe
					{
						OFFSET -2.797621 -4.200019 10.742415
						CHANNELS 3 Zrotation Xrotation Yrotation
						JOINT rBigToe
						{
							OFFSET 2.433708 -0.269072 1.841711
							CHANNELS 3 Zrotation Xrotation Yrotation
							End Site
							{
								OFFSET 0.000000 24.298409 -0.425647
							}
						}
					}
				}
			}
		}
	}
	JOINT abdomen
	{
		OFFSET 0.000000 1.841293 -3.551421
		CHANNELS 3 Zrotation Xrotation Yrotation
		JOINT abdomen2
		{
			OFFSET 0.000000 5.439911 3.419600
			CHANNELS 3 Zrotation Xrotation Yrotation
			JOINT chest
			{
				OFFSET 0.000000 14.715073 -2.918270
				CHANNELS 3 Zrotation Xrotation Yrotation
				JOINT neck
				{
					OFFSET 0.000000 26.294655 -1.248052
					CHANNELS 3 Zrotation Xrotation Yrotation
					JOINT head
					{
						OFFSET 0.000000 8.807068 1.063695
						CHANNELS 3 Zrotation Xrotation Yrotation
						JOINT rEye
						{
							OFFSET -3.030866 6.632080 7.702687
							CHANNELS 3 Zrotation Xrotation Yrotation
							End Site
							{
								OFFSET 2.969555 -11.022598 8.626689
							}
						}
						JOINT lEye
						{
							OFFSET 3.030866 6.632080 7.702687
							CHANNELS 3 Zrotation Xrotation Yrotation
							End Site
							{
								OFFSET 0.000000 -15.881760 10.104412
							}
						}
						JOINT upperJaw
						{
							OFFSET 0.000000 1.922699 2.891887
							CHANNELS 3 Zrotation Xrotation Yrotation
							End Site
							{
								OFFSET 0.000000 -19.386169 10.230839
							}
						}
						JOINT lowerJaw
						{
							OFFSET 0.000000 1.857620 2.686640
							CHANNELS 3 Zrotation Xrotation Yrotation
							JOINT tongueBase
							{
								OFFSET 0.000000 -3.019135 2.746916
								CHANNELS 3 Zrotation Xrotation Yrotation
								JOINT tongue01
								{
									OFFSET 0.000000 0.664124 0.223355
									CHANNELS 3 Zrotation Xrotation Yrotation
									JOINT tongue02
									{
										OFFSET 0.000000 0.339737 0.715627
										CHANNELS 3 Zrotation Xrotation Yrotation
										JOINT tongue03
										{
											OFFSET 0.000000 0.123444 0.730634
											CHANNELS 3 Zrotation Xrotation Yrotation
											JOINT tongue04
											{
												OFFSET 0.000000 0.017212 0.737415
												CHANNELS 3 Zrotation Xrotation Yrotation
												JOINT tongue05
												{
													OFFSET 0.000000 -0.021011 0.632440
													CHANNELS 3 Zrotation Xrotation Yrotation
													JOINT tongueTip
													{
														OFFSET 0.000000 -0.014404 0.601796
														CHANNELS 3 Zrotation Xrotation Yrotation
														End Site
														{
															OFFSET -14.139406 -2.625778 0.472826
														}
													}
												}
											}
										}
									}
								}
							}
						}
					}
				}
				JOINT rCollar
				{
					OFFSET -2.109295 21.452370 3.768136
					CHANNELS 3 Zrotation Xrotation Yrotation
					JOINT rShldr
					{
						OFFSET -11.491621 -2.568573 -4.940255
						CHANNELS 3 Zrotation Xrotation Yrotation
						JOINT rForeArm
						{
							OFFSET -28.789030 -0.213806 2.098380
							CHANNELS 3 Zrotation Xrotation Yrotation
							JOINT rHand
							{
								OFFSET -22.260895 -0.869583 10.391586
								CHANNELS 3 Zrotation Xrotation Yrotation
								JOINT rThumb1
								{
									OFFSET -0.628075 0.137405 2.362409
									CHANNELS 3 Zrotation Xrotation Yrotation
									JOINT rThumb2
									{
										OFFSET 0.085205 -0.600235 3.826079
										CHANNELS 3 Zrotation Xrotation Yrotation
										JOINT rThumb3
										{
											OFFSET -1.255478 -0.879211 2.439162
											CHANNELS 3 Zrotation Xrotation Yrotation
											End Site
											{
												OFFSET -2.963715 0.538574 4.059553
											}
										}
									}
								}
								JOINT rCarpal1
								{
									OFFSET -0.855530 1.026047 1.621985
									CHANNELS 3 Zrotation Xrotation Yrotation
									JOINT rIndex1
									{
										OFFSET -3.951324 0.390884 3.873290
										CHANNELS 3 Zrotation Xrotation Yrotation
										JOINT rIndex2
										{
											OFFSET -3.071884 -1.259598 2.506104
											CHANNELS 3 Zrotation Xrotation Yrotation
											JOINT rIndex3
											{
												OFFSET -1.394112 -1.446640 1.203302
												CHANNELS 3 Zrotation Xrotation Yrotation
												End Site
												{
													OFFSET -3.392448 -1.258026 0.533405
												}
											}
										}
									}
									JOINT rMid1
									{
										OFFSET -5.422974 0.107910 2.002650
										CHANNELS 3 Zrotation Xrotation Yrotation
										JOINT rMid2
										{
											OFFSET -3.599533 -1.323776 2.090647
											CHANNELS 3 Zrotation Xrotation Yrotation
											JOINT rMid3
											{
												OFFSET -1.360191 -1.598495 1.068055
												CHANNELS 3 Zrotation Xrotation Yrotation
												End Site
												{
													OFFSET -4.087769 -0.460876 0.069540
												}
											}
										}
									}
								}
								JOINT rCarpal2
								{
									OFFSET -1.942749 0.556229 -0.337217
									CHANNELS 3 Zrotation Xrotation Yrotation
									JOINT rRing1
									{
										OFFSET -4.762787 -0.121170 2.349089
										CHANNELS 3 Zrotation Xrotation Yrotation
										JOINT rRing2
										{
											OFFSET -3.380348 -1.337097 1.356700
											CHANNELS 3 Zrotation Xrotation Yrotation
											JOINT rRing3
											{
												OFFSET -1.430290 -1.499649 0.914224
												CHANNELS 3 Zrotation Xrotation Yrotation
												End Site
												{
													OFFSET -1.783272 -2.215851 -0.391895
												}
											}
										}
									}
									JOINT rPinky1
									{
										OFFSET -5.232559 -1.313721 0.336493
										CHANNELS 3 Zrotation Xrotation Yrotation
										JOINT rPinky2
										{
											OFFSET -2.217606 -1.389603 0.800693
											CHANNELS 3 Zrotation Xrotation Yrotation
											JOINT rPinky3
											{
												OFFSET -0.886887 -1.462280 0.774199
												CHANNELS 3 Zrotation Xrotation Yrotation
												End Site
												{
													OFFSET 14.139406 -2.625778 0.472826
												}
											}
										}
									}
								}
							}
						}
					}
				}
				JOINT lCollar
				{
					OFFSET 2.109295 21.452370 3.768136
					CHANNELS 3 Zrotation Xrotation Yrotation
					JOINT lShldr
					{
						OFFSET 11.491621 -2.568573 -4.940255
						CHANNELS 3 Zrotation Xrotation Yrotation
						JOINT lForeArm
						{
							OFFSET 28.789030 -0.213806 2.098380
							CHANNELS 3 Zrotation Xrotation Yrotation
							JOINT lHand
							{
								OFFSET 22.260895 -0.869583 10.391586
								CHANNELS 3 Zrotation Xrotation Yrotation
								JOINT lThumb1
								{
									OFFSET 0.628075 0.137405 2.362409
									CHANNELS 3 Zrotation Xrotation Yrotation
									JOINT lThumb2
									{
										OFFSET -0.085205 -0.600235 3.826079
										CHANNELS 3 Zrotation Xrotation Yrotation
										JOINT lThumb3
										{
											OFFSET 1.255478 -0.879211 2.439162
											CHANNELS 3 Zrotation Xrotation Yrotation
											End Site
											{
												OFFSET 2.963715 0.538574 4.059553
											}
										}
									}
								}
								JOINT lCarpal1
								{
									OFFSET 0.855530 1.026047 1.621985
									CHANNELS 3 Zrotation Xrotation Yrotation
									JOINT lIndex1
									{
										OFFSET 3.951324 0.390884 3.873290
										CHANNELS 3 Zrotation Xrotation Yrotation
										JOINT lIndex2
										{
											OFFSET 3.071884 -1.259598 2.506104
											CHANNELS 3 Zrotation Xrotation Yrotation
											JOINT lIndex3
											{
												OFFSET 1.394112 -1.446640 1.203302
												CHANNELS 3 Zrotation Xrotation Yrotation
												End Site
												{
													OFFSET 3.392448 -1.258026 0.533405
												}
											}
										}
									}
									JOINT lMid1
									{
										OFFSET 5.422974 0.107910 2.002650
										CHANNELS 3 Zrotation Xrotation Yrotation
										JOINT lMid2
										{
											OFFSET 3.599533 -1.323776 2.090647
											CHANNELS 3 Zrotation Xrotation Yrotation
											JOINT lMid3
											{
												OFFSET 1.360191 -1.598495 1.068055
												CHANNELS 3 Zrotation Xrotation Yrotation
												End Site
												{
													OFFSET 4.087769 -0.460876 0.069540
												}
											}
										}
									}
								}
								JOINT lCarpal2
								{
									OFFSET 1.942749 0.556229 -0.337217
									CHANNELS 3 Zrotation Xrotation Yrotation
									JOINT lRing1
									{
										OFFSET 4.762787 -0.121170 2.349089
										CHANNELS 3 Zrotation Xrotation Yrotation
										JOINT lRing2
										{
											OFFSET 3.380348 -1.337097 1.356700
											CHANNELS 3 Zrotation Xrotation Yrotation
											JOINT lRing3
											{
												OFFSET 1.430290 -1.499649 0.914224
												CHANNELS 3 Zrotation Xrotation Yrotation
												End Site
												{
													OFFSET 1.783272 -2.215851 -0.391895
												}
											}
										}
									}
									JOINT lPinky1
									{
										OFFSET 5.232559 -1.313721 0.336493
										CHANNELS 3 Zrotation Xrotation Yrotation
										JOINT lPinky2
										{
											OFFSET 2.217606 -1.389603 0.800693
											CHANNELS 3 Zrotation Xrotation Yrotation
											JOINT lPinky3
											{
												OFFSET 0.886887 -1.462280 0.774199
												CHANNELS 3 Zrotation Xrotation Yrotation
												End Site
												{
													OFFSET -10.295957 -17.050110 17.461308
												}
											}
										}
									}
								}
							}
						}
					}
				}
				JOINT rPectoral
				{
					OFFSET -6.358840 6.360771 6.369920
					CHANNELS 3 Zrotation Xrotation Yrotation
					End Site
					{
						OFFSET 10.295957 -17.050110 17.461308
					}
				}
				JOINT lPectoral
				{
					OFFSET 6.358840 6.360771 6.369920
					CHANNELS 3 Zrotation Xrotation Yrotation
					End Site
					{
						OFFSET 10.295957 -17.050110 17.461308
					}
				}
			}
		}
	}
}
MOTION
Frames:	4
Frame Time:	0.0333333
0.000000 -0.676868 0.000000 -8.546849 4.128039 9.537601 0.000000 0.000000 0.000000 45.881641 -11.552819 28.820478 -18.953964 17.315784 46.086853 -6.948349 21.086212 -2.643561 5.391016 -27.893230 -0.875455 0.000000 0.000000 0.000000 5.296901 -1.460263 10.084785 6.687086 -3.241530 16.633627 -13.974366 -14.466192 -7.116847 -4.228614 -7.009259 -2.616035 0.000000 0.000000 0.000000 0.648370 -15.050491 -6.832809 0.000000 0.000000 0.000000 6.042026 11.364253 -6.523155 10.333394 -1.658019 1.878600 -9.791624 1.417386 8.955277 0.000000 0.000000 0.000000 0.000000 0.000000 0.000000 0.000000 0.000000 0.000000 0.000000 0.000000 0.000000 0.000000 0.000000 0.000000 0.002392 18.987135 -0.000400 0.000000 16.984877 0.000000 0.000000 5.997298 0.000000 -0.003221 -13.991775 -0.001883 0.000000 0.000000 0.000000 0.000000 0.000000 0.000000 7.546537 -0.262697 -5.226292 -17.033106 60.070168 51.325390 4.099860 7.446836 55.175957 -15.421463 -14.537795 32.755356 -10.393009 -7.971904 16.648985 -1.494143 -15.037326 23.089367 7.407344 -0.278172 31.623465 0.000000 0.000000 0.000000 -28.477446 -15.601085 -20.528141 -6.553101 -5.405344 -0.161108 -0.911185 0.499141 -0.879585 -23.105791 -9.583187 -10.970890 -5.594068 0.087425 -4.287576 1.811965 4.958569 -1.575661 0.000000 0.000000 0.000000 -27.919960 -12.122275 -10.384290 -0.872475 3.534767 -6.698119 6.709841 8.422750 -0.412859 -45.158081 -22.008369 -25.226564 1.499976 6.816498 -7.062992 18.040422 9.635019 1.886098 -13.982027 -0.727482 7.036665 -69.038185 14.764248 11.765759 0.965019 -32.309879 19.654207 3.673365 -1.312940 1.001505 15.319766 21.766003 8.847360 9.971351 -11.763779 7.219129 18.863136 24.346981 -9.756931 0.000000 0.000000 0.000000 11.027719 -8.387539 19.180977 1.914385 0.843011 1.255206 12.634957 -9.968493 2.356183 8.647410 -3.307333 7.176097 0.594762 3.049653 3.815826 -0.477300 4.595424 2.175196 0.000000 0.000000 0.000000 13.374718 -10.205600 1.125776 -16.377953 9.700351 7.263905 -1.274504 8.359025 3.952809 19.886692 -24.513763 13.956596 -3.002340 7.554760 6.024999 -21.048069 19.561293 1.696056 0.172661 -0.008729 -0.507014 -0.243589 -0.012759 0.715352 
0.056575 -0.672887 0.042738 -8.490522 4.179838 9.451926 0.000000 0.000000 0.000000 45.714252 -11.455613 28.775574 -18.899273 17.212397 46.002380 -7.014771 20.859978 -2.912361 5.427970 -27.759871 -0.859914 0.000000 0.000000 0.000000 5.230537 -1.700631 10.145160 6.709559 -2.759435 16.579096 -14.031869 -14.768538 -7.129948 -4.223717 -6.951025 -2.615866 0.000000 0.000000 0.000000 0.545546 -14.968363 -6.837691 0.000000 0.000000 0.000000 6.188493 11.272869 -6.558756 10.116800 -1.309949 1.923895 -9.693867 1.152217 8.926494 0.000000 0.000000 0.000000 0.000000 0.000000 0.000000 0.000000 0.000000 0.000000 0.000000 0.000000 0.000000 0.000000 0.000000 0.000000 0.002392 18.987135 -0.000400 0.000000 16.984877 0.000000 0.000000 5.997298 0.000000 -0.003221 -13.991775 -0.001883 0.000000 0.000000 0.000000 0.000000 0.000000 0.000000 7.546537 -0.262697 -5.226292 -16.828028 60.241192 50.994640 4.297043 7.363978 55.249569 -15.654364 -14.737609 33.069798 -10.468863 -7.525528 16.323874 -1.494143 -15.037326 23.089367 7.415934 -0.278853 31.633015 0.000000 0.000000 0.000000 -28.477446 -15.601085 -20.528141 -6.553101 -5.405344 -0.161108 -0.911185 0.499141 -0.879585 -23.105791 -9.583187 -10.970890 -5.594068 0.087425 -4.287576 1.811965 4.958569 -1.575661 0.000000 0.000000 0.000000 -27.919960 -12.122275 -10.384290 -0.872475 3.534767 -6.698119 6.709841 8.422750 -0.412859 -45.164574 -22.013178 -25.226074 1.471696 6.806061 -7.065960 18.040422 9.635019 1.886098 -13.982027 -0.727482 7.036665 -69.017784 14.174331 11.742854 0.858168 -32.210175 19.532537 4.093775 -1.546768 1.135629 15.555628 22.038040 8.942705 9.971351 -11.763779 7.219129 18.930231 24.847555 -9.962950 0.000000 0.000000 0.000000 10.935178 -8.330141 19.321930 1.765575 0.978547 1.248358 12.634957 -9.968493 2.356183 8.647410 -3.307333 7.176097 0.594762 3.049653 3.815826 -0.477300 4.595424 2.175196 0.000000 0.000000 0.000000 13.128771 -10.220894 1.039077 -16.377953 9.700351 7.263905 -1.274504 8.359025 3.952809 19.677568 -24.858366 13.972515 -3.982755 7.901124 5.992065 -21.698841 19.906757 1.665378 0.172661 -0.008729 -0.507014 -0.243589 -0.012759 0.715352 
0.131191 -0.699001 0.046145 -8.504927 4.265897 9.564526 0.000000 0.000000 0.000000 45.449333 -11.655470 28.683411 -18.564163 17.189335 44.997593 -7.295557 20.262890 -3.095331 5.441943 -27.446541 -0.828958 0.000000 0.000000 0.000000 5.296631 -2.053065 9.856791 6.619334 -2.158617 16.559059 -14.079062 -15.095123 -7.070648 -4.179191 -7.015650 -2.624774 0.000000 0.000000 0.000000 0.366453 -14.902515 -6.892638 0.000000 0.000000 0.000000 6.424612 11.184244 -6.652277 9.864717 -1.234434 1.961609 -9.478053 1.148581 8.824365 0.000000 0.000000 0.000000 0.000000 0.000000 0.000000 0.000000 0.000000 0.000000 0.000000 0.000000 0.000000 0.000000 0.000000 0.000000 0.002392 18.987135 -0.000400 0.000000 16.984877 0.000000 0.000000 5.997298 0.000000 -0.003221 -13.991775 -0.001883 0.000000 0.000000 0.000000 0.000000 0.000000 0.000000 7.497542 -0.261530 -5.231043 -16.521276 60.436020 50.603508 4.109495 7.357985 55.331474 -15.682996 -14.739151 32.973660 -10.408964 -7.199518 16.113941 -1.494143 -15.037326 23.089367 7.440892 -0.279016 31.659075 0.000000 0.000000 0.000000 -28.477446 -15.601085 -20.528141 -6.553101 -5.405344 -0.161108 -0.911185 0.499141 -0.879585 -23.105791 -9.583187 -10.970890 -5.594068 0.087425 -4.287576 1.811965 4.958569 -1.575661 0.000000 0.000000 0.000000 -27.919960 -12.122275 -10.384290 -0.872475 3.534767 -6.698119 6.709841 8.422750 -0.412859 -45.180134 -22.027775 -25.225052 1.392360 6.776967 -7.074342 18.007154 9.617648 1.881323 -13.982027 -0.727482 7.036665 -68.988075 14.401255 11.794727 0.885546 -32.704945 19.470816 3.678617 -1.297402 1.025810 15.786309 22.257662 9.035163 9.959479 -11.772861 7.172318 18.981918 25.276299 -10.176811 0.000000 0.000000 0.000000 10.850270 -8.279043 19.439249 1.655910 1.078189 1.243454 12.634957 -9.968493 2.356183 8.647410 -3.307333 7.176097 0.594762 3.049653 3.815826 -0.477300 4.595424 2.175196 0.000000 0.000000 0.000000 12.870113 -10.221281 0.953999 -16.377953 9.700351 7.263905 -1.274504 8.359025 3.952809 19.485096 -25.165888 13.984720 -5.039419 8.274919 5.962741 -22.335003 20.244459 1.638723 0.172751 -0.008734 -0.507279 -0.243589 -0.012759 0.715352 
0.208083 -0.725911 0.049648 -8.587174 4.415812 9.509370 0.000000 0.000000 0.000000 45.160328 -11.843637 28.399305 -18.263926 17.159784 44.308147 -7.635217 19.339314 -3.740701 5.560308 -27.123846 -0.789392 0.000000 0.000000 0.000000 5.206185 -1.691926 9.881555 6.600168 -3.266717 16.449980 -13.708108 -14.623396 -6.805577 -4.212190 -7.010586 -2.604920 0.000000 0.000000 0.000000 0.545898 -14.857149 -6.901571 0.000000 0.000000 0.000000 6.275380 10.985008 -6.648215 9.853378 -0.913647 2.001065 -9.485704 0.972978 8.899216 0.000000 0.000000 0.000000 0.000000 0.000000 0.000000 0.000000 0.000000 0.000000 0.000000 0.000000 0.000000 0.000000 0.000000 0.000000 0.002392 18.987135 -0.000400 0.000000 16.984877 0.000000 0.000000 5.997298 0.000000 -0.003221 -13.991775 -0.001883 0.000000 0.000000 0.000000 0.000000 0.000000 0.000000 7.415241 -0.250738 -5.182275 -16.730879 60.727070 50.876865 4.169268 7.286870 55.211643 -15.832948 -14.840435 32.934509 -10.238971 -6.981638 16.002747 -1.494143 -15.037326 23.089367 7.479195 -0.279775 31.698959 0.000000 0.000000 0.000000 -28.477446 -15.601085 -20.528141 -6.553101 -5.405344 -0.161108 -0.911185 0.499141 -0.879585 -23.105791 -9.583187 -10.970890 -5.594068 0.087425 -4.287576 1.811965 4.958569 -1.575661 0.000000 0.000000 0.000000 -27.936962 -12.135043 -10.389229 -0.872475 3.534767 -6.698119 6.709841 8.422750 -0.412859 -45.205685 -22.049545 -25.224762 1.271239 6.732365 -7.087302 17.956060 9.591321 1.873415 -14.040936 -0.733875 7.077590 -68.796783 14.557517 11.825615 0.622589 -32.663521 19.259535 3.461063 -1.121760 1.338362 16.010784 22.427923 9.125581 9.930779 -11.794644 7.057441 19.019312 25.637005 -10.396222 0.000000 0.000000 0.000000 10.772057 -8.234293 19.533867 1.829411 0.909633 1.251419 12.634957 -9.968493 2.356183 8.647410 -3.307333 7.176097 0.594762 3.049653 3.815826 -0.477300 4.595424 2.175196 0.000000 0.000000 0.000000 12.600194 -10.207269 0.870573 -16.377953 9.700351 7.263905 -1.274504 8.359025 3.952809 19.309917 -25.438433 13.993659 -6.167507 8.674035 5.938747 -22.956085 20.575159 1.616905 0.171064 -0.008642 -0.502324 -0.245060 -0.012846 0.719673 
